# xmcd
#
# Track frame offsets:
#	150
#	18503
#	36159
#	72562
#	148176
#
# Disc length: 2288 seconds
#
# Revision: 1
# Processed by: cddbd v1.5.2PL0 Copyright (c) Steve Scherf et al.
# Submitted via: audiograbber 1.83.01
#
DISCID=4808ee05
DTITLE=Grateful Dead - 79-04-16 Club Front, San Rafael CA
DYEAR=1900
DGENRE=
TTITLE0=Jam > Gloria
TTITLE1=Linda Lou
TTITLE2=Jam
TTITLE3=Jam
TTITLE4=Jack Straw
EXTD=
EXTT0=
EXTT1=
EXTT2=
EXTT3=
EXTT4=
PLAYORDER=
